<mxfile host="app.diagrams.net" agent="Mozilla/5.0 (Windows NT 10.0; Win64; x64) AppleWebKit/537.36 (KHTML, like Gecko) Chrome/135.0.0.0 Safari/537.36" version="26.2.14">
  <diagram name="Page-1" id="XduL9CgAANd4o91-GL7N">
    <mxGraphModel dx="1388" dy="648" grid="1" gridSize="10" guides="1" tooltips="1" connect="1" arrows="1" fold="1" page="1" pageScale="1" pageWidth="827" pageHeight="1169" math="0" shadow="0">
      <root>
        <mxCell id="0" />
        <mxCell id="1" parent="0" />
        <mxCell id="bnC9-uB_xjfUs-M4p0_b-18" style="edgeStyle=orthogonalEdgeStyle;rounded=0;orthogonalLoop=1;jettySize=auto;html=1;" edge="1" parent="1" source="bnC9-uB_xjfUs-M4p0_b-15">
          <mxGeometry relative="1" as="geometry">
            <mxPoint x="200" y="350" as="targetPoint" />
          </mxGeometry>
        </mxCell>
        <mxCell id="bnC9-uB_xjfUs-M4p0_b-15" value="Audio (.wav)" style="rounded=1;whiteSpace=wrap;html=1;" vertex="1" parent="1">
          <mxGeometry x="30" y="315" width="120" height="70" as="geometry" />
        </mxCell>
        <mxCell id="bnC9-uB_xjfUs-M4p0_b-20" style="edgeStyle=orthogonalEdgeStyle;rounded=0;orthogonalLoop=1;jettySize=auto;html=1;" edge="1" parent="1" source="bnC9-uB_xjfUs-M4p0_b-19">
          <mxGeometry relative="1" as="geometry">
            <mxPoint x="430" y="350" as="targetPoint" />
          </mxGeometry>
        </mxCell>
        <mxCell id="bnC9-uB_xjfUs-M4p0_b-19" value="Mel Spectrogram&lt;div&gt;(batch, 1, 80, frames)&lt;/div&gt;" style="rounded=1;whiteSpace=wrap;html=1;" vertex="1" parent="1">
          <mxGeometry x="200" y="315" width="150" height="70" as="geometry" />
        </mxCell>
        <mxCell id="bnC9-uB_xjfUs-M4p0_b-21" value="Squeeze + Permute" style="text;html=1;align=center;verticalAlign=middle;whiteSpace=wrap;rounded=0;" vertex="1" parent="1">
          <mxGeometry x="340" y="310" width="97" height="30" as="geometry" />
        </mxCell>
        <mxCell id="bnC9-uB_xjfUs-M4p0_b-24" style="edgeStyle=orthogonalEdgeStyle;rounded=0;orthogonalLoop=1;jettySize=auto;html=1;" edge="1" parent="1" source="bnC9-uB_xjfUs-M4p0_b-22">
          <mxGeometry relative="1" as="geometry">
            <mxPoint x="650" y="350" as="targetPoint" />
          </mxGeometry>
        </mxCell>
        <mxCell id="bnC9-uB_xjfUs-M4p0_b-22" value="(Batch, Frames, 80)" style="rounded=1;whiteSpace=wrap;html=1;" vertex="1" parent="1">
          <mxGeometry x="430" y="315" width="150" height="70" as="geometry" />
        </mxCell>
        <mxCell id="bnC9-uB_xjfUs-M4p0_b-26" value="Linear Projection" style="text;html=1;align=center;verticalAlign=middle;whiteSpace=wrap;rounded=0;" vertex="1" parent="1">
          <mxGeometry x="583" y="310" width="60" height="30" as="geometry" />
        </mxCell>
        <mxCell id="bnC9-uB_xjfUs-M4p0_b-39" style="edgeStyle=orthogonalEdgeStyle;rounded=0;orthogonalLoop=1;jettySize=auto;html=1;" edge="1" parent="1" source="bnC9-uB_xjfUs-M4p0_b-28">
          <mxGeometry relative="1" as="geometry">
            <mxPoint x="870" y="350" as="targetPoint" />
          </mxGeometry>
        </mxCell>
        <mxCell id="bnC9-uB_xjfUs-M4p0_b-28" value="(Batch, Frames, 128)" style="rounded=1;whiteSpace=wrap;html=1;" vertex="1" parent="1">
          <mxGeometry x="650" y="315" width="150" height="70" as="geometry" />
        </mxCell>
        <mxCell id="bnC9-uB_xjfUs-M4p0_b-29" value="Linear Projection&lt;div&gt;Linear(n_mels --&amp;gt; d_model)&lt;/div&gt;" style="text;html=1;align=center;verticalAlign=middle;whiteSpace=wrap;rounded=0;" vertex="1" parent="1">
          <mxGeometry x="538" y="270" width="150" height="30" as="geometry" />
        </mxCell>
        <mxCell id="bnC9-uB_xjfUs-M4p0_b-31" value="Positional Encoding" style="text;html=1;align=center;verticalAlign=middle;whiteSpace=wrap;rounded=0;" vertex="1" parent="1">
          <mxGeometry x="810" y="310" width="60" height="30" as="geometry" />
        </mxCell>
        <mxCell id="bnC9-uB_xjfUs-M4p0_b-40" style="edgeStyle=orthogonalEdgeStyle;rounded=0;orthogonalLoop=1;jettySize=auto;html=1;" edge="1" parent="1" source="bnC9-uB_xjfUs-M4p0_b-32">
          <mxGeometry relative="1" as="geometry">
            <mxPoint x="1050" y="350" as="targetPoint" />
          </mxGeometry>
        </mxCell>
        <mxCell id="bnC9-uB_xjfUs-M4p0_b-32" value="(batch, frames, 128) (sequence embedding)" style="rounded=1;whiteSpace=wrap;html=1;" vertex="1" parent="1">
          <mxGeometry x="870" y="312.5" width="140" height="75" as="geometry" />
        </mxCell>
        <mxCell id="bnC9-uB_xjfUs-M4p0_b-34" value="Transformer Ecoder" style="rounded=1;whiteSpace=wrap;html=1;" vertex="1" parent="1">
          <mxGeometry x="1050" y="310" width="130" height="80" as="geometry" />
        </mxCell>
      </root>
    </mxGraphModel>
  </diagram>
</mxfile>
